<svg width="48" height="48" fill="none" class="advantageBannerIcon__p3My" xmlns="http://www.w3.org/2000/svg"><path d="M44.095 11.626c8.614 9.318 1.384 10.944-6.346 18.916-7.73 7.972-13.126 12.63-21.646 9.952C7.583 37.815-5.362 25.542 2.368 17.57c7.73-7.972 33.113-15.263 41.727-5.944z" fill="#F6C5CD"></path><path fill-rule="evenodd" clip-rule="evenodd" d="M17.869 10.004c-.93-.043-1.81.365-2.644 1.172-1.243 1.202-1.975 2.547-1.975 4.706 0 3.106 1.821 6.601 5.593 10.511C22.717 30.283 26.163 32 29.257 32h.026a6.893 6.893 0 004.817-2l.016-.016.016-.015a3.406 3.406 0 001.117-2.622 1.938 1.938 0 00-1.25-1.358l-.043-.015-3.505-1.579a1.197 1.197 0 00-1.295.268l-.012.012-.932.878c-.887.836-2.27 1.104-3.41.42a15.914 15.914 0 01-3.187-2.519 18.148 18.148 0 01-2.393-2.992c-.75-1.174-.477-2.64.433-3.553l.907-.912.024-.021c.347-.306.446-.807.243-1.223l-.008-.015-1.574-3.529-.006-.016a1.99 1.99 0 00-1.372-1.19zm-4.035-.266c1.124-1.087 2.555-1.843 4.244-1.725l.069.004.067.015a3.99 3.99 0 012.874 2.395l1.546 3.466a3.029 3.029 0 01-.698 3.558l-.864.869c-.323.324-.355.767-.165 1.065.614.96 1.328 1.853 2.131 2.665l.005.004a13.91 13.91 0 002.789 2.204c.28.168.691.138 1.009-.161l.908-.856a3.197 3.197 0 013.479-.689l.014.006 3.454 1.556a3.937 3.937 0 012.526 2.892l.016.077.005.078a5.407 5.407 0 01-1.75 4.274A8.893 8.893 0 0129.291 34H29.256c-3.863 0-7.794-2.14-11.836-6.202l-.006-.005-.005-.006c-3.903-4.044-6.159-8.021-6.159-11.905 0-2.756.994-4.606 2.584-6.144z" fill="#000"></path><path fill-rule="evenodd" clip-rule="evenodd" d="M17.868 10.003c-.93-.042-1.81.365-2.643 1.172-1.243 1.202-1.975 2.548-1.975 4.706 0 3.106 1.821 6.601 5.593 10.511C22.716 30.283 26.163 32 29.257 32h.026a6.892 6.892 0 004.817-2l.016-.016.016-.015a3.406 3.406 0 001.116-2.621A1.938 1.938 0 0034 25.989l-.043-.015-3.506-1.58a1.197 1.197 0 00-1.294.268l-.012.012-.932.878c-.887.836-2.27 1.104-3.41.42a15.914 15.914 0 01-3.188-2.518 18.156 18.156 0 01-2.392-2.993c-.75-1.174-.477-2.64.432-3.553l.907-.911.025-.022c.347-.306.446-.806.243-1.222l-.008-.016-1.574-3.528-.006-.017a1.99 1.99 0 00-1.373-1.189z" fill="#fff"></path></svg>